<svg width="283" height="83" viewBox="0 0 283 83" fill="none" xmlns="http://www.w3.org/2000/svg">
<path d="M282.894 74.0364C282.894 78.5452 279.262 82.1853 274.763 82.1853H8.42899C3.93024 82.1853 0.256958 78.5452 0.256958 74.0364V9.05176C0.256958 4.54297 3.93024 0.902832 8.42899 0.902832H274.763C279.262 0.902832 282.894 4.54297 282.894 9.05176V74.0364Z" fill="black"/>
<path d="M62.3726 41.1098C62.3313 34.2432 67.9857 30.934 68.2333 30.7685C65.014 26.0942 60.0613 25.4324 58.2865 25.391C54.118 24.936 50.0732 27.9143 47.9271 27.9143C45.7396 27.9143 42.479 25.4738 38.9708 25.5151C34.4308 25.5979 30.1797 28.2039 27.8272 32.299C22.9982 40.6548 26.589 52.8988 31.2115 59.6413C33.5228 62.9506 36.2056 66.6321 39.7138 66.508C43.1807 66.3839 44.4601 64.3156 48.6287 64.3156C52.756 64.3156 53.9529 66.508 57.5436 66.4252C61.2582 66.3839 63.5695 63.116 65.7982 59.7655C68.481 56.0012 69.5128 52.237 69.554 52.0715C69.5128 52.0302 62.4138 49.3001 62.3726 41.1098Z" fill="white"/>
<path d="M55.5625 20.9237C57.4198 18.6073 58.6992 15.4222 58.3278 12.2371C55.645 12.3612 52.3019 14.0985 50.3621 16.3736C48.6699 18.3591 47.1015 21.6683 47.5143 24.7707C50.5272 24.9775 53.6227 23.1988 55.5625 20.9237Z" fill="white"/>
<path d="M112.272 66.0117H107.443L104.801 57.6974H95.6386L93.121 66.0117H88.4159L97.4959 37.718H103.109L112.272 66.0117ZM104.017 54.2227L101.623 46.8183C101.376 46.0738 100.88 44.2951 100.179 41.4822H100.096C99.8072 42.6818 99.3532 44.4605 98.7341 46.8183L96.3816 54.2227H104.017Z" fill="white"/>
<path d="M135.673 55.5461C135.673 59.0208 134.724 61.7509 132.867 63.7778C131.174 65.5565 129.111 66.4665 126.634 66.4665C123.952 66.4665 122.012 65.5151 120.856 63.5709H120.774V74.3259H116.234V52.3196C116.234 50.1273 116.192 47.8936 116.069 45.6185H120.072L120.32 48.845H120.402C121.929 46.4044 124.199 45.2048 127.295 45.2048C129.689 45.2048 131.711 46.1562 133.321 48.059C134.848 49.9618 135.673 52.4437 135.673 55.5461ZM131.051 55.7529C131.051 53.7674 130.597 52.1128 129.73 50.8305C128.739 49.4654 127.419 48.8036 125.809 48.8036C124.695 48.8036 123.663 49.1759 122.755 49.9205C121.847 50.665 121.269 51.6578 120.98 52.8574C120.856 53.4365 120.774 53.8915 120.774 54.2224V57.6144C120.774 59.1035 121.228 60.3445 122.136 61.3786C123.044 62.4127 124.241 62.9091 125.685 62.9091C127.377 62.9091 128.698 62.2473 129.647 60.9236C130.555 59.6413 131.051 57.9039 131.051 55.7529Z" fill="white"/>
<path d="M159.075 55.5461C159.075 59.0208 158.126 61.7509 156.269 63.7778C154.576 65.5565 152.513 66.4665 150.036 66.4665C147.354 66.4665 145.414 65.5151 144.258 63.5709H144.176V74.3259H139.636V52.3196C139.636 50.1273 139.594 47.8936 139.471 45.6185H143.433L143.68 48.845H143.763C145.249 46.4044 147.56 45.2048 150.614 45.2048C153.008 45.2048 155.03 46.1562 156.64 48.059C158.291 49.9618 159.075 52.4437 159.075 55.5461ZM154.494 55.7529C154.494 53.7674 154.04 52.1128 153.132 50.8305C152.141 49.4654 150.862 48.8036 149.211 48.8036C148.097 48.8036 147.065 49.1759 146.157 49.9205C145.249 50.665 144.671 51.6578 144.382 52.8574C144.258 53.4365 144.176 53.8915 144.176 54.2224V57.6144C144.176 59.1035 144.63 60.3445 145.538 61.3786C146.446 62.4127 147.643 62.9091 149.087 62.9091C150.779 62.9091 152.1 62.2473 153.049 60.9236C153.999 59.6413 154.494 57.9039 154.494 55.7529Z" fill="white"/>
<path d="M185.283 58.0695C185.283 60.4687 184.458 62.4542 182.766 63.9433C180.908 65.5979 178.35 66.4252 175.089 66.4252C172.035 66.4252 169.6 65.8461 167.784 64.6465L168.816 60.8823C170.797 62.0819 172.984 62.7024 175.378 62.7024C177.07 62.7024 178.391 62.3301 179.381 61.5441C180.331 60.7582 180.785 59.7241 180.785 58.4418C180.785 57.2835 180.413 56.3321 179.629 55.5462C178.845 54.7603 177.565 54.0157 175.749 53.3539C170.797 51.4924 168.32 48.8037 168.32 45.2463C168.32 42.9298 169.187 41.0271 170.92 39.5379C172.654 38.0488 174.965 37.3042 177.854 37.3042C180.413 37.3042 182.559 37.7592 184.252 38.6279L183.137 42.3094C181.528 41.4407 179.753 41.027 177.73 41.027C176.121 41.027 174.883 41.3993 174.016 42.1853C173.273 42.8885 172.902 43.7572 172.902 44.7499C172.902 45.8668 173.314 46.7768 174.181 47.5214C174.924 48.1832 176.286 48.9278 178.308 49.7137C180.743 50.7065 182.518 51.8233 183.674 53.147C184.706 54.4707 185.283 56.1253 185.283 58.0695Z" fill="white"/>
<path d="M200.224 49.0106H195.23V58.9382C195.23 61.4615 196.097 62.7025 197.871 62.7025C198.697 62.7025 199.357 62.6197 199.894 62.4956L200.018 65.9289C199.11 66.2599 197.954 66.4253 196.509 66.4253C194.735 66.4253 193.331 65.8876 192.3 64.7707C191.309 63.6952 190.773 61.8338 190.773 59.2692V48.9692H187.801V45.5773H190.773V41.8544L195.23 40.5308V45.6187H200.224V49.0106Z" fill="white"/>
<path d="M222.759 55.6702C222.759 58.8139 221.851 61.3786 220.076 63.4055C218.219 65.4737 215.701 66.5079 212.606 66.5079C209.634 66.5079 207.24 65.5151 205.466 63.5296C203.691 61.5441 202.824 59.0208 202.824 56.0011C202.824 52.8574 203.732 50.2514 205.548 48.2245C207.364 46.1976 209.841 45.2048 212.936 45.2048C215.908 45.2048 218.343 46.1976 220.159 48.1831C221.892 50.1273 222.759 52.6092 222.759 55.6702ZM218.054 55.7943C218.054 53.9329 217.641 52.2783 216.857 50.9546C215.908 49.3413 214.546 48.514 212.771 48.514C210.955 48.514 209.552 49.3413 208.644 50.9546C207.818 52.3196 207.447 53.9329 207.447 55.877C207.447 57.7385 207.86 59.3517 208.644 60.7167C209.634 62.33 210.996 63.1573 212.73 63.1573C214.463 63.1573 215.825 62.33 216.774 60.6754C217.641 59.3103 218.054 57.6557 218.054 55.7943Z" fill="white"/>
<path d="M237.452 49.5894C236.998 49.5067 236.544 49.4653 236.008 49.4653C234.398 49.4653 233.201 50.0858 232.334 51.2854C231.592 52.3609 231.22 53.6846 231.22 55.3392V66.0528H226.68L226.721 52.0713C226.721 49.7135 226.68 47.5625 226.556 45.6598H230.518L230.684 49.5481H230.807C231.303 48.2244 232.046 47.1075 233.077 46.3216C234.068 45.577 235.182 45.2461 236.338 45.2461C236.751 45.2461 237.122 45.2875 237.452 45.3288V49.5894Z" fill="white"/>
<path d="M257.717 54.8429C257.717 55.6702 257.676 56.332 257.552 56.9111H243.973C244.015 58.938 244.675 60.4685 245.955 61.544C247.11 62.4954 248.596 62.9504 250.412 62.9504C252.434 62.9504 254.25 62.6195 255.901 61.999L256.603 65.1428C254.663 65.9701 252.393 66.3837 249.793 66.3837C246.615 66.3837 244.139 65.4737 242.364 63.5709C240.548 61.7095 239.681 59.2276 239.681 56.0838C239.681 53.0228 240.506 50.4582 242.199 48.3899C243.973 46.1976 246.326 45.1221 249.339 45.1221C252.269 45.1221 254.498 46.1976 256.025 48.3899C257.098 50.1686 257.717 52.3196 257.717 54.8429ZM253.384 53.6846C253.425 52.361 253.136 51.1614 252.517 50.21C251.733 48.969 250.536 48.3072 248.926 48.3072C247.44 48.3072 246.243 48.9277 245.335 50.1686C244.592 51.1614 244.138 52.3196 244.015 53.6846H253.384Z" fill="white"/>
<path d="M102.531 20.3026C102.531 22.8258 101.788 24.6873 100.303 25.9696C98.8993 27.1278 96.9595 27.7069 94.4006 27.7069C93.1211 27.7069 92.048 27.6656 91.14 27.5415V13.8496C92.3369 13.6428 93.6164 13.5601 94.9784 13.5601C97.4135 13.5601 99.2295 14.0978 100.468 15.1319C101.83 16.3729 102.531 18.0689 102.531 20.3026ZM100.179 20.3439C100.179 18.7307 99.766 17.4897 98.8993 16.6211C98.0326 15.7524 96.7944 15.3388 95.1435 15.3388C94.4418 15.3388 93.864 15.3801 93.3688 15.5042V25.8869C93.6577 25.9282 94.1529 25.9282 94.8546 25.9282C96.5468 25.9282 97.8675 25.4732 98.7755 24.5218C99.7248 23.5704 100.179 22.164 100.179 20.3439Z" fill="white"/>
<path d="M114.955 22.4954C114.955 24.0259 114.501 25.3082 113.634 26.301C112.726 27.3351 111.488 27.8315 109.961 27.8315C108.475 27.8315 107.319 27.3351 106.452 26.3837C105.586 25.3909 105.132 24.1913 105.132 22.7022C105.132 21.1303 105.586 19.8894 106.494 18.8966C107.402 17.9039 108.599 17.4075 110.126 17.4075C111.611 17.4075 112.767 17.9039 113.675 18.8552C114.542 19.7653 114.955 20.9649 114.955 22.4954ZM112.643 22.5367C112.643 21.6267 112.437 20.7994 112.065 20.1789C111.611 19.393 110.951 18.9793 110.084 18.9793C109.176 18.9793 108.516 19.393 108.062 20.1789C107.649 20.8408 107.484 21.6681 107.484 22.5781C107.484 23.4881 107.691 24.3154 108.062 24.9773C108.557 25.7632 109.218 26.1769 110.084 26.1769C110.951 26.1769 111.611 25.7632 112.065 24.9359C112.437 24.2741 112.643 23.4881 112.643 22.5367Z" fill="white"/>
<path d="M131.629 17.5317L128.492 27.5834H126.47L125.19 23.2401C124.86 22.1646 124.612 21.0891 124.406 20.0136H124.365C124.158 21.1305 123.911 22.206 123.581 23.2401L122.136 27.5834H120.072L117.142 17.5317H119.412L120.526 22.2887C120.815 23.4056 121.022 24.4811 121.228 25.5152H121.269C121.434 24.6879 121.723 23.6124 122.095 22.3301L123.498 17.5317H125.314L126.676 22.206C127.006 23.3642 127.254 24.4397 127.46 25.5152H127.502C127.667 24.4811 127.873 23.3642 128.203 22.206L129.4 17.5317H131.629Z" fill="white"/>
<path d="M143.144 27.5833H140.915V21.8335C140.915 20.0548 140.255 19.1862 138.893 19.1862C138.232 19.1862 137.696 19.4344 137.283 19.9307C136.87 20.4271 136.664 21.0062 136.664 21.6681V27.6247H134.435V20.4685C134.435 19.5998 134.394 18.6484 134.353 17.6143H136.292L136.375 19.1862H136.416C136.664 18.6898 137.077 18.3175 137.572 17.9866C138.191 17.6143 138.851 17.4075 139.594 17.4075C140.543 17.4075 141.286 17.697 141.905 18.3175C142.69 19.0621 143.061 20.1789 143.061 21.6267V27.5833H143.144Z" fill="white"/>
<path d="M149.294 27.5829H147.065V12.9397H149.294V27.5829Z" fill="white"/>
<path d="M162.377 22.4954C162.377 24.0259 161.923 25.3082 161.056 26.301C160.148 27.3351 158.91 27.8315 157.383 27.8315C155.897 27.8315 154.742 27.3351 153.875 26.3837C153.008 25.3909 152.554 24.1913 152.554 22.7022C152.554 21.1303 153.008 19.8894 153.916 18.8966C154.824 17.9039 156.021 17.4075 157.548 17.4075C159.034 17.4075 160.19 17.9039 161.098 18.8552C161.964 19.7653 162.377 20.9649 162.377 22.4954ZM160.107 22.5367C160.107 21.6267 159.901 20.7994 159.529 20.1789C159.075 19.393 158.415 18.9793 157.548 18.9793C156.64 18.9793 155.98 19.393 155.526 20.1789C155.113 20.8408 154.907 21.6681 154.907 22.5781C154.907 23.4881 155.113 24.3154 155.526 24.9773C156.021 25.7632 156.681 26.1769 157.548 26.1769C158.415 26.1769 159.075 25.7632 159.529 24.9359C159.901 24.2741 160.107 23.4881 160.107 22.5367Z" fill="white"/>
<path d="M173.149 27.5831H171.168L171.003 26.4249H170.962C170.26 27.3349 169.311 27.79 168.031 27.79C167.082 27.79 166.339 27.5004 165.761 26.8799C165.225 26.3422 164.977 25.639 164.977 24.853C164.977 23.6121 165.472 22.7021 166.504 22.0402C167.536 21.3784 168.981 21.0888 170.838 21.0888V20.9234C170.838 19.5997 170.136 18.9378 168.774 18.9378C167.784 18.9378 166.917 19.186 166.174 19.6824L165.72 18.2346C166.669 17.6555 167.784 17.366 169.146 17.366C171.746 17.366 173.067 18.731 173.067 21.5025V25.184C173.025 26.1767 173.067 27.004 173.149 27.5831ZM170.838 24.1498V22.578C168.403 22.5366 167.165 23.1984 167.165 24.6049C167.165 25.1426 167.288 25.5149 167.577 25.7631C167.866 26.0113 168.238 26.1354 168.65 26.1354C169.146 26.1354 169.6 25.9699 170.012 25.6803C170.425 25.3908 170.673 24.9771 170.797 24.4808C170.838 24.398 170.838 24.2739 170.838 24.1498Z" fill="white"/>
<path d="M185.82 27.5828H183.839L183.715 25.9696H183.674C183.055 27.2106 181.982 27.7897 180.454 27.7897C179.258 27.7897 178.226 27.3346 177.442 26.3833C176.657 25.4319 176.245 24.1909 176.245 22.7018C176.245 21.0885 176.657 19.7648 177.524 18.7721C178.35 17.8207 179.381 17.3657 180.62 17.3657C181.982 17.3657 182.89 17.8207 183.426 18.7307H183.467V12.981H185.696V24.8941C185.737 25.8455 185.737 26.7555 185.82 27.5828ZM183.509 23.3636V21.709C183.509 21.4194 183.509 21.1713 183.426 21.0058C183.302 20.468 183.055 20.013 182.642 19.6407C182.229 19.2685 181.734 19.103 181.156 19.103C180.331 19.103 179.67 19.4339 179.216 20.0958C178.762 20.7576 178.515 21.5849 178.515 22.619C178.515 23.6118 178.721 24.3977 179.216 25.0182C179.712 25.68 180.331 26.011 181.156 26.011C181.899 26.011 182.477 25.7214 182.931 25.1837C183.302 24.6873 183.509 24.0668 183.509 23.3636Z" fill="white"/>
<path d="M204.847 22.4954C204.847 24.0259 204.393 25.3082 203.526 26.301C202.618 27.3351 201.38 27.8315 199.853 27.8315C198.367 27.8315 197.212 27.3351 196.345 26.3837C195.478 25.3909 195.024 24.1913 195.024 22.7022C195.024 21.1303 195.478 19.8894 196.386 18.8966C197.294 17.9039 198.491 17.4075 200.018 17.4075C201.504 17.4075 202.66 17.9039 203.568 18.8552C204.393 19.7653 204.847 20.9649 204.847 22.4954ZM202.536 22.5367C202.536 21.6267 202.329 20.7994 201.917 20.1789C201.463 19.393 200.802 18.9793 199.936 18.9793C199.028 18.9793 198.367 19.393 197.913 20.1789C197.5 20.8408 197.335 21.6681 197.335 22.5781C197.335 23.4881 197.542 24.3154 197.913 24.9773C198.408 25.7632 199.069 26.1769 199.936 26.1769C200.802 26.1769 201.463 25.7632 201.917 24.9359C202.329 24.2741 202.536 23.4881 202.536 22.5367Z" fill="white"/>
<path d="M216.775 27.5833H214.587V21.8335C214.587 20.0548 213.927 19.1862 212.565 19.1862C211.904 19.1862 211.368 19.4344 210.955 19.9307C210.542 20.4271 210.336 21.0062 210.336 21.6681V27.6247H208.107V20.4685C208.107 19.5998 208.066 18.6484 208.025 17.6143H209.965L210.047 19.1862H210.088C210.336 18.6898 210.749 18.3175 211.244 17.9866C211.863 17.6143 212.524 17.4075 213.266 17.4075C214.216 17.4075 214.959 17.697 215.578 18.3175C216.362 19.0621 216.733 20.1789 216.733 21.6267V27.5833H216.775Z" fill="white"/>
<path d="M231.757 19.2272H229.321V24.1083C229.321 25.3493 229.775 25.9697 230.601 25.9697C231.014 25.9697 231.344 25.9284 231.591 25.887L231.674 27.5416C231.22 27.7071 230.642 27.7898 229.941 27.7898C229.074 27.7898 228.372 27.5003 227.877 27.0039C227.382 26.4661 227.134 25.5561 227.134 24.3151V19.2686H225.648V17.614H227.134V15.7939L229.321 15.1321V17.614H231.757V19.2272Z" fill="white"/>
<path d="M243.561 27.5829H241.332V21.8746C241.332 20.0545 240.672 19.1858 239.31 19.1858C238.278 19.1858 237.576 19.7236 237.205 20.7577C237.122 20.9645 237.081 21.2541 237.081 21.5436V27.5829H234.852V12.9397H237.081V18.979H237.122C237.824 17.8621 238.814 17.3244 240.135 17.3244C241.043 17.3244 241.827 17.614 242.405 18.2344C243.148 18.979 243.519 20.0959 243.519 21.585V27.5829H243.561Z" fill="white"/>
<path d="M255.695 22.0817C255.695 22.4953 255.654 22.8263 255.612 23.0745H248.926C248.967 24.0672 249.256 24.8118 249.875 25.3495C250.453 25.8046 251.155 26.0527 252.063 26.0527C253.053 26.0527 253.961 25.8873 254.746 25.5977L255.076 27.1282C254.127 27.5419 253.012 27.7487 251.733 27.7487C250.164 27.7487 248.967 27.2937 248.059 26.3837C247.193 25.4736 246.739 24.2327 246.739 22.7022C246.739 21.1717 247.151 19.9307 247.977 18.9379C248.844 17.8625 249.999 17.3247 251.485 17.3247C252.93 17.3247 254.003 17.8625 254.746 18.9379C255.406 19.8066 255.695 20.8407 255.695 22.0817ZM253.549 21.5026C253.549 20.8407 253.425 20.2616 253.136 19.8066C252.765 19.1861 252.145 18.8966 251.361 18.8966C250.618 18.8966 250.04 19.1861 249.586 19.8066C249.215 20.303 249.009 20.8821 248.926 21.5439H253.549V21.5026Z" fill="white"/>
</svg>
