<svg width="287" height="86" viewBox="0 0 287 86" fill="none" xmlns="http://www.w3.org/2000/svg">
<path d="M275.951 85.088H10.6074C4.78792 85.088 0.000264864 80.2897 0.000264864 74.4572V10.6308C-0.041008 4.79835 4.74664 0 10.6074 0H275.951C281.77 0 286.558 4.79835 286.558 10.6308V74.4572C286.558 80.331 281.77 85.088 275.951 85.088Z" fill="black"/>
<path d="M100.623 21.7995C100.623 23.5782 100.087 24.9846 99.055 26.0601C97.8581 27.301 96.2897 27.9629 94.3912 27.9629C92.5752 27.9629 91.0068 27.3424 89.686 26.0601C88.4066 24.7778 87.7462 23.2059 87.7462 21.3031C87.7462 19.4003 88.4066 17.8284 89.686 16.5461C90.9655 15.2638 92.5339 14.6433 94.3912 14.6433C95.2992 14.6433 96.1659 14.8088 96.9914 15.1811C97.8168 15.5533 98.4772 16.0084 98.9725 16.6288L97.8581 17.7457C97.0326 16.7529 95.8357 16.2152 94.3499 16.2152C93.0292 16.2152 91.8322 16.6702 90.883 17.6216C89.8924 18.573 89.3971 19.8139 89.3971 21.3031C89.3971 22.7922 89.8924 24.0332 90.883 24.9846C91.8735 25.936 93.0292 26.391 94.3499 26.391C95.7945 26.391 96.9501 25.936 97.8994 24.9846C98.5185 24.3641 98.8899 23.4954 98.9725 22.3786H94.3912V20.8481H100.582C100.623 21.179 100.623 21.4686 100.623 21.7995Z" fill="white"/>
<path d="M100.624 21.7995H100.417C100.417 23.5368 99.9219 24.9019 98.8901 25.8947C97.7344 27.0942 96.2486 27.7147 94.3501 27.7147C92.5753 27.7147 91.0482 27.0942 89.81 25.8533C88.5719 24.6123 87.9528 23.0818 87.9528 21.2618C87.9528 19.4003 88.5719 17.9112 89.81 16.6702C91.0482 15.4293 92.5753 14.8088 94.3501 14.8088C95.2168 14.8088 96.0835 14.9743 96.8677 15.3052C97.6519 15.6361 98.3123 16.0911 98.7663 16.6702L98.9314 16.5461L98.7663 16.3807L97.6932 17.5389L97.8583 17.7044L98.0234 17.5803C97.1566 16.5048 95.9184 15.967 94.3913 16.0084C92.9881 16.0084 91.7911 16.5048 90.7593 17.4975C89.7275 18.4903 89.2322 19.7726 89.2322 21.3445C89.2322 22.9164 89.7275 24.1987 90.7593 25.1915C91.7911 26.1842 92.9881 26.6806 94.3913 26.6806C95.8772 26.6806 97.1154 26.1842 98.1059 25.1915C98.7663 24.5296 99.1377 23.6196 99.2203 22.4614V22.2132H94.5564V21.0549H100.5V20.8481L100.293 20.8895C100.335 21.2204 100.376 21.51 100.376 21.7995H100.789C100.789 21.4686 100.747 21.1377 100.706 20.8068L100.665 20.6413H94.1024V22.5855H98.9314V22.3786H98.725C98.6424 23.4541 98.271 24.2401 97.7345 24.8192C96.8264 25.7292 95.7121 26.1842 94.3088 26.1842C93.0293 26.1842 91.915 25.7292 90.9657 24.8192C90.0164 23.9091 89.5624 22.7509 89.5624 21.3031C89.5624 19.8554 90.0164 18.6971 90.9657 17.7871C91.915 16.8771 92.9881 16.422 94.3088 16.422C95.7533 16.422 96.8264 16.9184 97.6519 17.8698L97.817 18.0353L99.0964 16.753L99.2203 16.6289L99.0964 16.4634C98.5599 15.8429 97.8583 15.3466 97.0328 14.9743C96.1661 14.602 95.2581 14.4365 94.3501 14.4365C92.4515 14.4365 90.8419 15.0984 89.5211 16.422C88.2004 17.7457 87.54 19.4003 87.54 21.3031C87.54 23.2473 88.2004 24.9019 89.5211 26.2256C90.8419 27.5493 92.4515 28.2111 94.3501 28.2111C96.3312 28.2111 97.9408 27.5493 99.179 26.2669L99.0552 26.0601L99.2203 26.2256C100.335 25.1087 100.871 23.6196 100.871 21.7995H100.624Z" fill="white"/>
<path d="M110.405 16.4635H104.627V20.5173H109.827V22.0478H104.627V26.1015H110.405V27.6734H102.976V14.8916H110.405V16.4635Z" fill="white"/>
<path d="M110.405 16.4635V16.2567H104.421V20.7241H109.621V21.841H104.421V26.3084H110.199V27.4253H103.182V15.0985H110.199V16.4635H110.405V16.2567V16.4635H110.612V14.6848H102.77V27.8803H110.612V25.8948H104.833V22.2546H110.075V20.3105H104.833V16.6703H110.612V16.4635H110.405Z" fill="white"/>
<path d="M117.339 27.6734H115.688V16.4635H112.139V14.8916H120.889V16.4635H117.339V27.6734Z" fill="white"/>
<path d="M117.339 27.6735V27.4253H115.895V16.2567H112.345V15.0985H120.682V16.2567H117.091V27.6735H117.339V27.4253V27.6735H117.545V16.6703H121.095V14.6848H111.891V16.6703H115.482V27.8803H117.545V27.6735H117.339Z" fill="white"/>
<path d="M128.854 14.8916H127.203V27.6734H128.854V14.8916Z" fill="white"/>
<path d="M127.203 27.6735H127.41V15.0985H128.648V27.4253H127.203V27.6735H127.41H127.203V27.8803H129.06V14.6848H126.997V27.8803H127.203V27.6735Z" fill="white"/>
<path d="M136.118 27.6734H134.467V16.4635H130.918V14.8916H139.668V16.4635H136.118V27.6734Z" fill="white"/>
<path d="M136.118 27.6735V27.4253H134.674V16.2567H131.124V15.0985H139.461V16.2567H135.912V27.6735H136.118V27.4253V27.6735H136.325V16.6703H139.874V14.6848H130.711V16.6703H134.261V27.8803H136.325V27.6735H136.118Z" fill="white"/>
<path d="M156.218 26.0188C154.98 27.3011 153.411 27.963 151.554 27.963C149.697 27.963 148.129 27.3011 146.89 26.0188C145.652 24.7365 145.033 23.1646 145.033 21.3032C145.033 19.4418 145.652 17.8285 146.89 16.5462C148.129 15.2639 149.697 14.6021 151.554 14.6021C153.411 14.6021 154.939 15.2639 156.218 16.5462C157.456 17.8285 158.117 19.4004 158.117 21.2618C158.117 23.1233 157.497 24.7365 156.218 26.0188ZM148.087 24.9433C149.037 25.8947 150.192 26.3911 151.554 26.3911C152.916 26.3911 154.072 25.8947 155.021 24.9433C155.97 23.9919 156.424 22.751 156.424 21.2618C156.424 19.7727 155.97 18.5731 155.021 17.5803C154.072 16.6289 152.916 16.1326 151.554 16.1326C150.192 16.1326 149.037 16.6289 148.087 17.5803C147.138 18.5317 146.684 19.7727 146.684 21.2618C146.684 22.751 147.138 23.9919 148.087 24.9433Z" fill="white"/>
<path d="M156.218 26.0189L156.053 25.8534C154.856 27.0943 153.329 27.7148 151.554 27.7148C149.738 27.7148 148.252 27.0943 147.055 25.8534C145.859 24.6124 145.239 23.0819 145.239 21.2619C145.239 19.4418 145.859 17.9113 147.055 16.6703C148.252 15.4294 149.738 14.8089 151.554 14.8089C153.37 14.8089 154.856 15.4294 156.053 16.6703C157.25 17.9113 157.869 19.4418 157.869 21.2619C157.869 23.0819 157.25 24.6124 156.053 25.8534L156.342 26.143C157.621 24.8193 158.282 23.1647 158.282 21.2619C158.282 19.3591 157.621 17.7045 156.342 16.3808C155.062 15.0571 153.453 14.3953 151.554 14.3953C149.656 14.3953 148.005 15.0571 146.725 16.3808C145.446 17.7045 144.785 19.3591 144.785 21.2619C144.785 23.1647 145.446 24.8193 146.725 26.143C148.005 27.4666 149.614 28.1285 151.554 28.1285C153.453 28.1285 155.104 27.4666 156.383 26.143L156.218 26.0189ZM148.087 24.9434L147.922 25.1088C148.913 26.1016 150.11 26.598 151.554 26.598C152.958 26.598 154.196 26.1016 155.186 25.1088C156.177 24.1161 156.672 22.8337 156.672 21.3032C156.672 19.7727 156.177 18.4904 155.186 17.4976C154.196 16.5049 152.999 16.0085 151.554 16.0085C150.151 16.0085 148.913 16.5049 147.922 17.4976C146.932 18.4904 146.436 19.7727 146.436 21.3032C146.436 22.8337 146.932 24.1161 147.922 25.1088L148.211 24.8193C147.303 23.9092 146.849 22.751 146.849 21.3032C146.849 19.8555 147.303 18.6972 148.211 17.7872C149.119 16.8772 150.192 16.4222 151.513 16.4222C152.834 16.4222 153.907 16.8772 154.815 17.7872C155.723 18.6972 156.177 19.8555 156.177 21.3032C156.177 22.751 155.723 23.9092 154.815 24.8193C153.907 25.7293 152.834 26.1843 151.513 26.1843C150.192 26.1843 149.119 25.7293 148.211 24.8193L148.087 24.9434Z" fill="white"/>
<path d="M160.387 27.6734V14.8916H162.409L168.6 24.8192H168.641L168.6 22.3787V14.8916H170.21V27.6734H168.518L162.038 17.2494H161.955L162.038 19.69V27.6734H160.387Z" fill="white"/>
<path d="M160.387 27.6735H160.593V15.0985H162.285L168.476 25.0261H168.889L168.806 22.3787V15.0985H170.003V27.4253H168.641L162.161 17.0426H161.749L161.831 19.69V27.4253H160.387V27.6735H160.593H160.387V27.8803H162.244V19.69L162.161 17.2495H161.955V17.4563H162.038V17.2495L161.872 17.3735L168.394 27.8803H170.416V14.6848H168.352V22.3787L168.435 24.8193H168.641V24.6124H168.6V24.8193L168.765 24.6952L162.492 14.6848H160.18V27.8803H160.387V27.6735Z" fill="white"/>
<path d="M144.621 46.2877C139.627 46.2877 135.541 50.0933 135.541 55.3467C135.541 60.5587 139.627 64.4056 144.621 64.4056C149.615 64.4056 153.659 60.5587 153.659 55.3467C153.659 50.0933 149.615 46.2877 144.621 46.2877ZM144.621 60.8069C141.897 60.8069 139.503 58.5318 139.503 55.3053C139.503 52.0374 141.855 49.8037 144.621 49.8037C147.345 49.8037 149.697 52.0374 149.697 55.3053C149.697 58.5318 147.345 60.8069 144.621 60.8069ZM124.851 46.2877C119.857 46.2877 115.771 50.0933 115.771 55.3467C115.771 60.5587 119.857 64.4056 124.851 64.4056C129.845 64.4056 133.931 60.5587 133.931 55.3467C133.89 50.0933 129.845 46.2877 124.851 46.2877ZM124.851 60.8069C122.127 60.8069 119.733 58.5318 119.733 55.3053C119.733 52.0374 122.086 49.8037 124.851 49.8037C127.616 49.8037 129.927 52.0374 129.927 55.3053C129.927 58.5318 127.575 60.8069 124.851 60.8069ZM101.325 49.0592V52.9061H110.488C110.199 55.0571 109.497 56.629 108.383 57.7458C107.062 59.0695 104.957 60.5587 101.284 60.5587C95.6296 60.5587 91.2134 56.0085 91.2134 50.3415C91.2134 44.6745 95.6296 40.1243 101.284 40.1243C104.338 40.1243 106.567 41.3239 108.177 42.8544L110.859 40.1657C108.548 37.9733 105.535 36.2773 101.243 36.2773C93.5247 36.2773 87.0036 42.5648 87.0036 50.3415C87.0036 58.0768 93.4834 64.4056 101.243 64.4056C105.411 64.4056 108.548 63.0406 111.024 60.4759C113.542 57.9527 114.326 54.3953 114.326 51.4997C114.326 50.5897 114.244 49.8037 114.12 49.1005H101.325V49.0592ZM197.491 52.0374C196.748 50.0106 194.437 46.2877 189.773 46.2877C185.109 46.2877 181.271 49.9692 181.271 55.3467C181.271 60.4346 185.109 64.4056 190.227 64.4056C194.354 64.4056 196.748 61.8823 197.739 60.3932L194.643 58.3249C193.611 59.8141 192.208 60.8069 190.186 60.8069C188.163 60.8069 186.719 59.8968 185.811 58.0768L197.904 53.0716L197.491 52.0374ZM185.192 55.0571C185.068 51.5411 187.875 49.7624 189.897 49.7624C191.465 49.7624 192.786 50.5483 193.24 51.6652L185.192 55.0571ZM175.369 63.8265H179.331V37.2287H175.369V63.8265ZM168.889 48.3146H168.765C167.857 47.2391 166.165 46.2877 164.019 46.2877C159.52 46.2877 155.351 50.2587 155.351 55.388C155.351 60.4759 159.479 64.4056 164.019 64.4056C166.165 64.4056 167.898 63.4542 168.765 62.3374H168.889V63.6197C168.889 67.0943 167.032 68.9144 164.06 68.9144C161.625 68.9144 160.139 67.1771 159.52 65.6879L156.053 67.1357C157.044 69.5349 159.685 72.4718 164.06 72.4718C168.724 72.4718 172.645 69.7417 172.645 63.0406V46.7841H168.889V48.3146ZM164.308 60.8069C161.584 60.8069 159.272 58.5318 159.272 55.3467C159.272 52.1615 161.542 49.8451 164.308 49.8451C166.99 49.8451 169.137 52.1615 169.137 55.3467C169.137 58.5318 167.032 60.8069 164.308 60.8069ZM216.064 37.2287H206.571V63.8265H210.533V53.7334H216.064C220.439 53.7334 224.772 50.5483 224.772 45.4604C224.772 40.4139 220.48 37.2287 216.064 37.2287ZM216.188 50.0519H210.575V40.9516H216.188C219.159 40.9516 220.81 43.3921 220.81 45.5018C220.81 47.57 219.159 50.0519 216.188 50.0519ZM240.663 46.2463C237.815 46.2463 234.843 47.5287 233.605 50.3001L237.113 51.7893C237.856 50.3001 239.259 49.8451 240.745 49.8451C242.809 49.8451 244.872 51.0861 244.914 53.2784V53.568C244.212 53.1543 242.644 52.5338 240.786 52.5338C236.989 52.5338 233.151 54.6021 233.151 58.5318C233.151 62.0892 236.246 64.4056 239.755 64.4056C242.396 64.4056 243.882 63.206 244.79 61.7996H244.914V63.8679H248.752V53.6921C248.711 48.8523 245.203 46.2463 240.663 46.2463ZM240.167 60.8069C238.847 60.8069 237.072 60.145 237.072 58.5318C237.072 56.4635 239.342 55.6776 241.282 55.6776C243.015 55.6776 243.841 56.0499 244.914 56.5876C244.583 59.0695 242.479 60.8069 240.167 60.8069ZM262.661 46.8254L258.121 58.3663H257.997L253.292 46.8254H249.041L256.099 62.9578L252.054 71.9341H256.181L267.077 46.8668H262.661V46.8254ZM226.96 63.8265H230.922V37.2287H226.96V63.8265Z" fill="white"/>
<path d="M22.1227 16.049C21.5036 16.7108 21.1321 17.7036 21.1321 19.0273V66.0594C21.1321 67.3831 21.5036 68.3759 22.1227 69.0377L22.2878 69.2032L48.5786 42.8536V42.2331L22.2878 15.8835L22.1227 16.049Z" fill="#5AC9F4"/>
<path d="M67.8943 45.6252C70.866 43.9292 70.866 41.1578 67.8943 39.5032L57.3285 33.4639L48.5786 42.2333V42.8537L57.3285 51.6231L57.5348 51.4991L67.8943 45.6252Z" fill="url(#paint0_linear)"/>
<path d="M48.5786 42.5649L22.164 69.0386C23.1546 70.0727 24.7642 70.1968 26.5802 69.1627L57.5761 51.4998L48.5786 42.5649Z" fill="url(#paint1_linear)"/>
<path d="M26.5389 15.9253C24.7229 14.8912 23.1132 15.0153 22.1227 16.0494L48.5373 42.5231L57.4935 33.5469L26.5389 15.9253Z" fill="url(#paint2_linear)"/>
<defs>
<linearGradient id="paint0_linear" x1="65.9695" y1="42.5489" x2="14.6501" y2="42.5489" gradientUnits="userSpaceOnUse">
<stop stop-color="#FEE000"/>
<stop offset="0.1707" stop-color="#FCD107"/>
<stop offset="0.5375" stop-color="#FAB416"/>
<stop offset="0.8265" stop-color="#F9A21A"/>
<stop offset="1" stop-color="#F99B1B"/>
</linearGradient>
<linearGradient id="paint1_linear" x1="52.6522" y1="47.4209" x2="4.26701" y2="95.6983" gradientUnits="userSpaceOnUse">
<stop stop-color="#EF4547"/>
<stop offset="1" stop-color="#C6176D"/>
</linearGradient>
<linearGradient id="paint2_linear" x1="4.16347" y1="-10.9206" x2="43.6615" y2="28.4894" gradientUnits="userSpaceOnUse">
<stop stop-color="#269E6F"/>
<stop offset="0.3166" stop-color="#4DAB6D"/>
<stop offset="0.7397" stop-color="#6ABA6A"/>
<stop offset="1" stop-color="#74C168"/>
</linearGradient>
</defs>
</svg>
